<svg width="22" height="21" viewBox="0 0 22 21" fill="none" xmlns="http://www.w3.org/2000/svg">
<path d="M19.5312 0H2.34375C1.0498 0 0 1.0061 0 2.24617V18.7181C0 19.9581 1.0498 20.9642 2.34375 20.9642H19.5312C20.8252 20.9642 21.875 19.9581 21.875 18.7181V2.24617C21.875 1.0061 20.8252 0 19.5312 0ZM13.54 17.9553C13.1299 18.0255 12.9785 17.7822 12.9785 17.5809C12.9785 17.3282 12.9883 16.0367 12.9883 14.9932C12.9883 14.2632 12.7344 13.7999 12.4365 13.5566C14.2432 13.3647 16.1475 13.126 16.1475 10.1358C16.1475 9.28415 15.8301 8.85832 15.3125 8.31082C15.3955 8.1096 15.6738 7.28132 15.2295 6.20503C14.5508 6.00382 12.998 7.04267 12.998 7.04267C12.3535 6.86953 11.6553 6.78061 10.9668 6.78061C10.2783 6.78061 9.58008 6.86953 8.93555 7.04267C8.93555 7.04267 7.38281 6.00382 6.7041 6.20503C6.25977 7.27664 6.5332 8.10492 6.62109 8.31082C6.10352 8.85832 5.85938 9.28415 5.85938 10.1358C5.85938 13.112 7.68066 13.3647 9.4873 13.5566C9.25293 13.7578 9.04297 14.1041 8.96973 14.6001C8.50586 14.8013 7.31934 15.1476 6.61133 13.9496C6.16699 13.2103 5.36621 13.1494 5.36621 13.1494C4.5752 13.1401 5.3125 13.6267 5.3125 13.6267C5.83984 13.8607 6.21094 14.7592 6.21094 14.7592C6.68457 16.149 8.9502 15.681 8.9502 15.681C8.9502 16.3315 8.95996 17.3891 8.95996 17.5809C8.95996 17.7822 8.81348 18.0255 8.39844 17.9553C5.17578 16.9211 2.91992 13.9824 2.91992 10.5476C2.91992 6.25183 6.34766 2.99021 10.8301 2.99021C15.3125 2.99021 18.9453 6.25183 18.9453 10.5476C18.9502 13.9824 16.7627 16.9258 13.54 17.9553ZM8.75 15.0961C8.65723 15.1148 8.56934 15.0774 8.55957 15.0166C8.5498 14.9464 8.61328 14.8855 8.70605 14.8668C8.79883 14.8575 8.88672 14.8949 8.89648 14.9557C8.91113 15.0166 8.84766 15.0774 8.75 15.0961ZM8.28613 15.054C8.28613 15.1148 8.21289 15.1663 8.11523 15.1663C8.00781 15.1757 7.93457 15.1242 7.93457 15.054C7.93457 14.9932 8.00781 14.9417 8.10547 14.9417C8.19824 14.9323 8.28613 14.9838 8.28613 15.054ZM7.61719 15.0025C7.59766 15.0634 7.5 15.0914 7.41699 15.0634C7.32422 15.0446 7.26074 14.9744 7.28027 14.9136C7.2998 14.8528 7.39746 14.8247 7.48047 14.8434C7.57812 14.8715 7.6416 14.9417 7.61719 15.0025ZM7.0166 14.7498C6.97266 14.8013 6.87988 14.7919 6.80664 14.7217C6.7334 14.6609 6.71387 14.572 6.7627 14.5299C6.80664 14.4784 6.89941 14.4878 6.97266 14.558C7.03613 14.6188 7.06055 14.7124 7.0166 14.7498ZM6.57227 14.324C6.52832 14.3521 6.44531 14.324 6.3916 14.2538C6.33789 14.1836 6.33789 14.1041 6.3916 14.0713C6.44531 14.0292 6.52832 14.0619 6.57227 14.1321C6.62598 14.2023 6.62598 14.2866 6.57227 14.324ZM6.25488 13.8701C6.21094 13.9122 6.1377 13.8888 6.08398 13.842C6.03027 13.7812 6.02051 13.711 6.06445 13.6782C6.1084 13.6361 6.18164 13.6595 6.23535 13.7063C6.28906 13.7671 6.29883 13.8373 6.25488 13.8701ZM5.92773 13.5238C5.9082 13.5659 5.84473 13.5753 5.79102 13.5425C5.72754 13.5144 5.69824 13.463 5.71777 13.4208C5.7373 13.3928 5.79102 13.3787 5.85449 13.4021C5.91797 13.4349 5.94727 13.4864 5.92773 13.5238Z" fill="#AA23D2"/>
</svg>
