<svg width="22" height="21" viewBox="0 0 22 21" fill="none" xmlns="http://www.w3.org/2000/svg">
<path d="M20.3125 0H1.55762C0.698242 0 0 0.67853 0 1.51148V19.4527C0 20.2857 0.698242 20.9642 1.55762 20.9642H20.3125C21.1719 20.9642 21.875 20.2857 21.875 19.4527V1.51148C21.875 0.67853 21.1719 0 20.3125 0ZM6.61133 17.9693H3.36914V7.96453H6.61621V17.9693H6.61133ZM4.99023 6.59811C3.9502 6.59811 3.11035 5.78856 3.11035 4.7965C3.11035 3.80444 3.9502 2.99489 4.99023 2.99489C6.02539 2.99489 6.87012 3.80444 6.87012 4.7965C6.87012 5.79324 6.03027 6.59811 4.99023 6.59811ZM18.7646 17.9693H15.5225V13.1026C15.5225 11.9421 15.498 10.4494 13.8379 10.4494C12.1484 10.4494 11.8896 11.7128 11.8896 13.0184V17.9693H8.64746V7.96453H11.7578V9.33095H11.8018C12.2363 8.54479 13.2959 7.71652 14.873 7.71652C18.1543 7.71652 18.7646 9.78954 18.7646 12.4849V17.9693Z" fill="#AA23D2"/>
</svg>
