<svg width="25" height="22" viewBox="0 0 25 22" fill="none" xmlns="http://www.w3.org/2000/svg">
<path d="M6.94444 18.6349C5.83333 18.6349 4.72222 17.7031 4.16667 17.3038C1.38889 15.4403 0.555556 14.7748 0 14.3755V19.9659C0 20.7009 0.621962 21.297 1.38889 21.297H12.5C13.2669 21.297 13.8889 20.7009 13.8889 19.9659V14.3755C13.3333 14.7748 12.5 15.4403 9.72222 17.3038C9.16667 17.7031 8.05556 18.6349 6.94444 18.6349ZM12.5 10.6485H1.38889C0.621962 10.6485 0 11.2446 0 11.9796V12.6451C1.11111 13.4437 0.972222 13.4437 5 16.2389C5.41667 16.5052 6.25 17.3038 6.94444 17.3038C7.63889 17.3038 8.47222 16.5052 8.88889 16.3721C12.9167 13.5768 12.7778 13.5768 13.8889 12.7782V11.9796C13.8889 11.2446 13.2669 10.6485 12.5 10.6485ZM23.6111 6.65531H9.72222C8.95529 6.65531 8.33333 7.25137 8.33333 7.98637V9.31743H12.5C13.9414 9.31743 15.1298 10.3748 15.2652 11.7225L15.2778 11.7133V17.3038H23.6111C24.378 17.3038 25 16.7077 25 15.9727V7.98637C25 7.25137 24.378 6.65531 23.6111 6.65531ZM22.2222 11.9796H19.4444V9.31743H22.2222V11.9796ZM6.94444 7.98637C6.94444 6.51846 8.19054 5.32425 9.72222 5.32425H19.4444V1.33106C19.4444 0.596066 18.8225 0 18.0556 0H4.16667C3.39974 0 2.77778 0.596066 2.77778 1.33106V9.31743H6.94444V7.98637Z" fill="#AA23D2"/>
</svg>
